<svg width="500" height="400" xmlns="http://www.w3.org/2000/svg">
  <!-- Background -->
  <rect width="500" height="400" fill="#f0fdf4"/>
  
  <!-- Road -->
  <rect x="0" y="300" width="500" height="100" fill="#374151"/>
  <line x1="0" y1="350" x2="500" y2="350" stroke="#fbbf24" stroke-width="4" stroke-dasharray="20,15"/>
  
  <!-- Car Body -->
  <g transform="translate(150, 180)">
    <!-- Main body -->
    <rect x="0" y="40" width="200" height="60" rx="10" fill="#10b981"/>
    <!-- Top -->
    <path d="M 40 40 L 70 10 L 150 10 L 180 40 Z" fill="#10b981"/>
    <!-- Windows -->
    <rect x="45" y="15" width="50" height="25" rx="3" fill="#dbeafe" opacity="0.7"/>
    <rect x="105" y="15" width="70" height="25" rx="3" fill="#dbeafe" opacity="0.7"/>
    <!-- Wheels -->
    <circle cx="40" cy="100" r="20" fill="#1f2937"/>
    <circle cx="40" cy="100" r="10" fill="#6b7280"/>
    <circle cx="160" cy="100" r="20" fill="#1f2937"/>
    <circle cx="160" cy="100" r="10" fill="#6b7280"/>
    <!-- Headlight -->
    <circle cx="195" cy="60" r="5" fill="#fbbf24"/>
    <!-- Door handle -->
    <rect x="120" y="65" width="15" height="3" rx="2" fill="#047857"/>
  </g>
  
  <!-- Trees -->
  <g transform="translate(50, 200)">
    <rect x="15" y="0" width="10" height="50" fill="#92400e"/>
    <circle cx="20" cy="10" r="25" fill="#10b981"/>
  </g>
  <g transform="translate(400, 180)">
    <rect x="15" y="0" width="10" height="70" fill="#92400e"/>
    <circle cx="20" cy="20" r="30" fill="#059669"/>
  </g>
  
  <!-- Sun -->
  <circle cx="450" cy="50" r="30" fill="#fbbf24" opacity="0.8"/>
  
  <!-- Clouds -->
  <g opacity="0.6">
    <ellipse cx="100" cy="80" rx="40" ry="20" fill="#e5e7eb"/>
    <ellipse cx="120" cy="75" rx="35" ry="18" fill="#e5e7eb"/>
    <ellipse cx="85" cy="75" rx="30" ry="15" fill="#e5e7eb"/>
  </g>
  
  <g opacity="0.6">
    <ellipse cx="300" cy="60" rx="50" ry="25" fill="#e5e7eb"/>
    <ellipse cx="330" cy="55" rx="40" ry="20" fill="#e5e7eb"/>
    <ellipse cx="280" cy="55" rx="35" ry="18" fill="#e5e7eb"/>
  </g>
  
  <!-- Passengers in car (stick figures) -->
  <g transform="translate(150, 180)">
    <!-- Driver -->
    <circle cx="60" cy="28" r="6" fill="#1f2937"/>
    <line x1="60" y1="34" x2="60" y2="45" stroke="#1f2937" stroke-width="2"/>
    
    <!-- Passenger -->
    <circle cx="140" cy="28" r="6" fill="#1f2937"/>
    <line x1="140" y1="34" x2="140" y2="45" stroke="#1f2937" stroke-width="2"/>
  </g>
</svg>
